<?xml version="1.0" encoding="UTF-8" standalone="no" ?>
<!DOCTYPE svg PUBLIC "-//W3C//DTD SVG 1.1//EN" "http://www.w3.org/Graphics/SVG/1.1/DTD/svg11.dtd">
<svg xmlns="http://www.w3.org/2000/svg" xmlns:xlink="http://www.w3.org/1999/xlink" version="1.1" width="1080" height="1080" viewBox="0 0 1080 1080" xml:space="preserve">
<desc>Created with Fabric.js 5.2.4</desc>
<defs>
</defs>
<rect x="0" y="0" width="100%" height="100%" fill="transparent"></rect>
<g transform="matrix(1 0 0 1 540 540)" id="796e29e6-c9cc-4bec-b916-7b10a453b534"  >
<rect style="stroke: none; stroke-width: 1; stroke-dasharray: none; stroke-linecap: butt; stroke-dashoffset: 0; stroke-linejoin: miter; stroke-miterlimit: 4; fill: rgb(255,255,255); fill-rule: nonzero; opacity: 1; visibility: hidden;" vector-effect="non-scaling-stroke"  x="-540" y="-540" rx="0" ry="0" width="1080" height="1080" />
</g>
<g transform="matrix(1 0 0 1 540 540)" id="3bebf9c7-66c6-466e-b6ee-20eda5a271e5"  >
</g>
<g transform="matrix(14.31 0 0 14.31 563.93 540)" id="5606c56b-4290-4d20-a88f-0351334b4a82"  >
<rect style="stroke: rgb(0,0,0); stroke-width: 0; stroke-dasharray: none; stroke-linecap: butt; stroke-dashoffset: 0; stroke-linejoin: miter; stroke-miterlimit: 4; fill: rgb(255,255,255); fill-rule: nonzero; opacity: 1;" vector-effect="non-scaling-stroke"  x="-33.0835" y="-33.0835" rx="0" ry="0" width="66.167" height="66.167" />
</g>
<g transform="matrix(2.41 0 0 2.41 540 540)"  >
<path style="stroke: rgb(0,0,0); stroke-width: 0; stroke-dasharray: none; stroke-linecap: butt; stroke-dashoffset: 0; stroke-linejoin: miter; stroke-miterlimit: 4; fill: rgb(0,0,0); fill-rule: nonzero; opacity: 1;" vector-effect="non-scaling-stroke"  transform=" translate(-224, -256)" d="M 448 96 C 448 60.7 419.3 32 384 32 L 64 32 C 28.7 32 0 60.7 0 96 L 0 416 C 0 451.3 28.7 480 64 480 L 384 480 C 419.3 480 448 451.3 448 416 L 448 96 z M 265.8 407.7 C 265.8 405.9 265.8 401.7 265.90000000000003 396.09999999999997 C 266.00000000000006 384.7 266.00000000000006 367.29999999999995 266.00000000000006 352.4 C 266.00000000000006 336.79999999999995 260.80000000000007 326.9 254.70000000000005 321.7 C 291.70000000000005 317.59999999999997 330.70000000000005 312.5 330.70000000000005 248.6 C 330.70000000000005 230.4 324.20000000000005 221.29999999999998 313.6 209.6 C 315.3 205.29999999999998 321 187.6 311.90000000000003 164.6 C 298.00000000000006 160.29999999999998 266.20000000000005 182.5 266.20000000000005 182.5 C 253.00000000000006 178.8 238.70000000000005 176.9 224.60000000000005 176.9 C 210.50000000000006 176.9 196.20000000000005 178.8 183.00000000000006 182.5 C 183.00000000000006 182.5 151.20000000000005 160.3 137.30000000000007 164.6 C 128.20000000000007 187.5 133.80000000000007 205.2 135.60000000000008 209.6 C 125.00000000000009 221.29999999999998 120.00000000000009 230.4 120.00000000000009 248.6 C 120.00000000000009 312.2 157.30000000000007 317.6 194.30000000000007 321.7 C 189.50000000000006 326 185.20000000000007 333.4 183.70000000000007 344 C 174.20000000000007 348.3 149.9000000000001 355.7 135.4000000000001 330.1 C 126.3000000000001 314.3 109.90000000000009 313 109.90000000000009 313 C 93.70000000000009 312.8 108.8000000000001 323.2 108.8000000000001 323.2 C 119.6000000000001 328.2 127.2000000000001 347.4 127.2000000000001 347.4 C 136.9000000000001 377.09999999999997 183.3000000000001 367.09999999999997 183.3000000000001 367.09999999999997 C 183.3000000000001 376.09999999999997 183.4000000000001 388.79999999999995 183.4000000000001 397.7 C 183.4000000000001 402.5 183.50000000000009 406.3 183.50000000000009 407.7 C 183.50000000000009 412 180.50000000000009 417.2 172.00000000000009 415.7 C 106 393.6 59.8 330.8 59.8 257.4 C 59.8 165.59999999999997 130 95.89999999999998 221.8 95.89999999999998 C 313.6 95.89999999999998 388 165.59999999999997 388 257.4 C 388.1 330.79999999999995 343.3 393.7 277.3 415.7 C 268.90000000000003 417.2 265.8 412 265.8 407.7 z M 175.3 352.9 C 175.10000000000002 351.4 176.4 350.09999999999997 178.3 349.7 C 180.20000000000002 349.5 182 350.3 182.20000000000002 351.59999999999997 C 182.50000000000003 352.9 181.20000000000002 354.2 179.20000000000002 354.59999999999997 C 177.3 354.99999999999994 175.50000000000003 354.2 175.3 352.9 z M 166.20000000000002 356.09999999999997 C 164.00000000000003 356.29999999999995 162.50000000000003 355.2 162.50000000000003 353.7 C 162.50000000000003 352.4 164.00000000000003 351.3 166.00000000000003 351.3 C 167.90000000000003 351.1 169.70000000000002 352.2 169.70000000000002 353.7 C 169.70000000000002 355 168.20000000000002 356.09999999999997 166.20000000000002 356.09999999999997 z M 151.9 353.9 C 150 353.5 148.70000000000002 352 149.1 350.7 C 149.49999999999997 349.4 151.5 348.8 153.2 349.2 C 155.2 349.8 156.5 351.3 156 352.59999999999997 C 155.6 353.9 153.6 354.49999999999994 151.9 353.9 z M 139.4 346.59999999999997 C 137.9 345.29999999999995 137.5 343.4 138.5 342.49999999999994 C 139.4 341.3999999999999 141.3 341.59999999999997 142.8 343.09999999999997 C 144.10000000000002 344.4 144.60000000000002 346.4 143.70000000000002 347.2 C 142.8 348.3 140.9 348.09999999999997 139.4 346.59999999999997 z M 130.9 336.59999999999997 C 129.8 335.09999999999997 129.8 333.4 130.9 332.7 C 132 331.8 133.70000000000002 332.5 134.6 334 C 135.7 335.5 135.7 337.3 134.6 338.1 C 133.7 338.70000000000005 132 338.1 130.9 336.6 z M 124.60000000000001 327.79999999999995 C 123.50000000000001 326.49999999999994 123.30000000000001 324.99999999999994 124.2 324.29999999999995 C 125.10000000000001 323.4 126.60000000000001 323.9 127.7 324.9 C 128.8 326.2 129 327.7 128.1 328.4 C 127.19999999999999 329.29999999999995 125.69999999999999 328.79999999999995 124.6 327.79999999999995 z M 118.60000000000001 321.4 C 117.30000000000001 320.79999999999995 116.7 319.7 117.10000000000001 318.79999999999995 C 117.50000000000001 318.19999999999993 118.60000000000001 317.9 119.9 318.4 C 121.2 319.09999999999997 121.80000000000001 320.2 121.4 321 C 121 321.9 119.7 322.1 118.60000000000001 321.4 z" stroke-linecap="round" />
</g>
</svg>